<?xml version="1.0" standalone="no"?>
<!DOCTYPE svg PUBLIC "-//W3C//DTD SVG 20010904//EN"
 "http://www.w3.org/TR/2001/REC-SVG-20010904/DTD/svg10.dtd">
<svg version="1.0" xmlns="http://www.w3.org/2000/svg"
 width="759.000000pt" height="329.000000pt" viewBox="0 0 759.000000 329.000000"
 preserveAspectRatio="xMidYMid meet">

<g transform="translate(0.000000,329.000000) scale(0.100000,-0.100000)"
fill="#000000" stroke="none">
<path d="M169 3253 l-137 -4 -5 -42 c-4 -23 -3 -100 1 -171 8 -122 9 -130 34
-151 39 -34 185 -86 255 -92 l63 -6 14 34 c8 19 25 76 38 128 l22 93 46 -6
c148 -21 330 -36 508 -42 111 -4 205 -10 207 -15 3 -4 9 -45 14 -91 11 -98 37
-298 55 -417 16 -101 13 -118 -28 -137 l-31 -14 28 4 c39 5 44 -12 5 -18 -183
-29 -331 -46 -442 -52 -227 -11 -333 -75 -420 -256 -71 -146 -146 -391 -188
-613 -25 -130 -30 -380 -10 -460 9 -34 10 -65 4 -96 -7 -35 -5 -64 8 -114 10
-38 15 -87 12 -110 -3 -34 0 -47 16 -63 22 -22 137 -62 178 -62 28 0 41 -13
94 -95 46 -71 103 -116 186 -143 87 -30 375 -47 531 -33 158 14 209 31 271 86
40 36 57 45 87 45 20 0 46 6 58 12 12 7 53 15 92 18 l70 5 10 49 c12 57 22 63
64 42 40 -21 46 -33 30 -63 -12 -23 -11 -27 10 -44 29 -24 49 -24 169 1 53 11
141 24 194 28 82 8 104 14 137 36 l39 27 62 -20 c82 -27 183 -47 302 -60 124
-14 452 -14 645 -1 116 8 185 7 320 -4 94 -8 181 -20 192 -26 12 -6 26 -31 35
-59 21 -71 40 -103 85 -144 91 -82 212 -117 405 -117 77 0 152 6 181 14 116
31 201 97 267 209 23 38 47 71 55 74 7 3 29 -7 48 -22 54 -40 88 -41 227 -6
212 53 399 85 923 157 291 40 310 40 416 13 84 -21 116 -24 299 -24 192 0 208
1 255 23 59 27 80 45 110 92 66 105 97 257 130 630 18 205 19 350 1 415 -35
133 -119 230 -238 276 -44 16 -63 31 -89 67 -18 25 -35 40 -37 33 -2 -6 0 -17
5 -24 4 -7 -4 1 -19 18 -23 25 -28 27 -28 11 0 -18 -1 -18 -19 -2 -10 9 -22
16 -27 15 -5 -2 -27 3 -49 9 -22 7 -51 12 -65 12 l-25 0 30 -25 c17 -13 26
-24 21 -25 -6 0 -2 -6 7 -12 14 -11 97 -167 97 -183 0 -17 -19 1 -34 33 -22
46 -97 164 -111 174 -19 14 -16 -22 4 -51 12 -16 21 -31 21 -34 0 -3 18 -37
41 -76 54 -94 45 -113 -11 -25 -76 119 -130 179 -130 144 0 -5 34 -61 76 -125
42 -63 74 -120 72 -126 -2 -6 -33 29 -70 78 -36 49 -73 95 -82 102 -14 12 -16
10 -16 -16 0 -17 9 -38 20 -48 24 -21 64 -84 58 -90 -2 -2 -21 0 -43 5 -30 7
-45 5 -62 -6 -28 -18 -28 -23 2 127 15 73 33 135 45 151 l19 26 -72 18 c-40
10 -76 17 -80 16 -4 -1 -40 6 -80 16 -83 20 -122 19 -113 -5 5 -12 4 -13 -7
-5 -30 25 -25 -4 5 -35 29 -30 33 -40 33 -88 0 -38 4 -54 12 -51 6 3 19 -4 28
-14 15 -17 13 -18 -57 -25 -73 -8 -74 -20 -3 -26 17 -1 -1 -5 -40 -9 -75 -6
-72 -13 15 -28 l55 -9 -67 -2 c-66 -1 -68 0 -73 27 -3 15 -10 40 -15 55 -7 22
-6 26 3 19 7 -5 28 -12 48 -16 34 -6 37 -4 43 20 9 35 -10 91 -33 97 -10 2
-35 3 -55 2 -34 -3 -40 1 -89 60 -41 50 -56 63 -73 59 -30 -8 -104 27 -104 49
0 34 30 31 71 -9 44 -43 54 -36 12 8 -24 25 -25 28 -7 28 10 0 33 9 50 19 28
17 32 25 36 77 6 69 1 94 -19 94 -8 0 -24 10 -36 23 -48 51 -83 67 -141 67
-52 0 -57 -2 -68 -27 -6 -16 -10 -34 -9 -40 4 -24 -11 -13 -108 75 -201 183
-338 290 -499 391 l-84 52 -66 -6 c-161 -16 -315 -46 -419 -81 l-44 -15 -57
51 c-60 55 -120 90 -149 90 -10 0 2 -9 26 -21 50 -22 151 -104 151 -122 0 -7
-24 -22 -53 -35 -73 -32 -205 -114 -213 -132 -4 -8 -8 -60 -9 -115 l-3 -100 7
88 c5 81 9 91 34 112 25 22 30 23 65 11 20 -7 51 -11 69 -9 24 4 42 -2 75 -25
24 -17 50 -37 57 -46 15 -18 51 -22 51 -6 0 6 15 10 33 10 32 0 34 -3 102
-140 39 -77 73 -140 78 -140 4 0 7 -3 7 -8 0 -4 -45 -4 -100 0 -55 4 -172 12
-259 17 -86 6 -166 13 -177 16 -19 7 -19 6 0 -9 14 -11 42 -16 95 -16 42 0
157 -7 256 -15 99 -8 183 -15 186 -15 3 0 13 -17 22 -37 10 -21 34 -56 53 -78
l37 -40 -36 52 c-20 29 -39 64 -43 79 -7 27 -7 27 41 22 29 -4 42 -2 34 3 -8
5 -29 9 -46 9 -31 0 -73 25 -73 42 0 4 -20 49 -45 99 -43 87 -55 129 -36 129
28 0 483 -225 506 -250 18 -19 17 -20 -3 -20 -12 0 -22 -4 -22 -10 0 -6 35
-10 83 -11 45 -1 111 -5 147 -9 47 -6 23 -8 -90 -5 l-155 3 103 -11 c83 -8
102 -13 98 -24 -4 -8 -6 -32 -6 -53 0 -31 -8 -46 -40 -80 l-40 -41 -177 20
c-283 33 -304 34 -332 12 -32 -24 -22 -55 14 -48 35 6 41 -10 18 -42 -16 -20
-17 -29 -8 -38 19 -18 48 -20 77 -6 15 7 29 10 32 5 6 -10 -35 -56 -57 -65
-24 -9 -33 -38 -15 -48 8 -4 23 -27 33 -49 15 -34 23 -40 39 -36 12 3 24 6 29
6 4 0 7 7 7 15 0 18 39 20 42 3 2 -25 5 -33 15 -58 20 -48 35 -102 29 -107 -3
-3 -8 6 -12 21 -3 14 -12 26 -20 26 -8 0 -14 7 -14 16 0 8 -4 13 -9 9 -5 -3
-12 3 -16 12 -3 10 -12 26 -19 36 -14 18 -16 18 -40 2 -32 -22 -32 -35 0 -88
l25 -42 -25 28 c-27 29 -51 35 -59 15 -4 -10 -6 -10 -6 0 -1 6 -8 12 -16 12
-12 0 -13 -4 -3 -26 7 -15 14 -21 16 -15 6 17 19 13 25 -6 2 -10 8 -27 12 -38
5 -16 5 -17 -4 -5 -6 8 -11 11 -11 5 0 -12 -60 56 -60 68 0 17 -114 127 -132
127 -10 0 -18 -4 -18 -9 0 -17 -29 -20 -45 -5 -20 20 -19 34 3 34 11 0 8 5
-12 15 -43 22 -143 20 -184 -5 -24 -15 -32 -26 -28 -38 4 -12 -3 -23 -24 -35
-27 -16 -32 -16 -45 -4 -13 13 -9 20 33 56 26 23 40 38 31 35 -11 -3 -29 6
-48 25 -18 17 -36 31 -42 31 -6 0 -29 20 -50 44 -37 41 -103 83 -123 78 -5 -2
-6 5 -2 15 5 16 4 15 -9 -1 -13 -17 -15 -18 -15 -3 0 9 -7 17 -15 17 -8 0 -15
4 -15 9 0 5 -7 12 -16 15 -12 5 -15 2 -10 -11 6 -15 5 -16 -6 -5 -7 7 -13 20
-13 29 0 9 -7 18 -15 20 -13 4 -13 3 0 -6 8 -6 11 -11 5 -11 -5 0 -25 14 -44
30 -18 17 -39 31 -45 32 -70 9 -106 20 -106 31 0 6 -7 1 -16 -11 -8 -12 -20
-20 -25 -17 -5 4 -9 1 -9 -5 0 -6 -7 -10 -16 -8 -24 5 -12 23 15 23 41 0 36
23 -6 30 -21 3 -60 13 -87 22 -51 17 -103 25 -149 24 -15 0 -25 4 -22 9 4 6
-15 10 -47 10 -29 0 -71 7 -93 15 -58 21 -78 17 -27 -5 23 -11 42 -23 42 -28
0 -5 -28 -8 -62 -7 -84 4 -81 3 -75 19 5 12 1 13 -15 7 -20 -7 -88 8 -88 20 0
20 852 28 937 9 25 -6 48 -8 51 -5 3 3 -2 5 -10 5 -9 0 -18 5 -20 11 -2 7 -42
14 -101 17 -53 2 -97 8 -97 12 0 4 -52 11 -115 15 -132 8 -164 25 -48 25 54 0
73 3 63 10 -13 8 -12 10 4 10 16 0 16 2 6 16 -8 8 -9 14 -4 13 26 -6 64 34 68
74 1 4 5 6 9 5 5 -2 20 24 35 57 15 33 31 67 37 75 5 8 10 23 10 33 2 23 40
61 53 53 11 -6 -4 -95 -19 -110 -5 -6 -9 -20 -9 -32 0 -13 -5 -26 -11 -29 -6
-4 -7 -19 -4 -37 5 -21 4 -28 -4 -24 -7 5 -11 -7 -10 -36 l1 -43 15 55 c18 65
22 76 58 156 15 34 26 67 23 75 -5 16 46 69 85 89 16 8 23 16 17 18 -7 3 2 11
19 18 18 8 30 18 26 23 -5 10 -34 4 -45 -8 -5 -6 -59 -28 -95 -39 -16 -4 -14
0 9 21 16 15 34 27 41 27 7 0 18 7 25 15 10 12 10 15 -4 15 -9 0 -16 8 -16 21
0 11 4 17 10 14 12 -7 40 12 40 26 0 15 -27 10 -86 -16 -31 -14 -60 -22 -65
-19 -5 3 -9 1 -9 -4 0 -4 -16 -16 -35 -25 -19 -9 -35 -12 -35 -7 0 6 5 10 11
10 5 0 8 4 5 8 -2 4 -2 13 2 19 13 19 172 93 247 114 24 7 20 7 -15 3 -25 -3
-83 -20 -130 -39 -57 -23 -78 -28 -63 -16 l22 19 -37 6 c-20 3 -49 6 -64 6
-16 0 -28 5 -28 10 0 6 -18 10 -41 10 l-40 0 2 89 c4 131 4 130 -178 171 -171
38 -289 46 -796 59 -312 7 -2562 10 -2858 4z m3449 -280 c-2 -31 -7 -38 -23
-35 -17 2 -16 0 5 -12 24 -15 22 -15 -38 -16 -44 0 -61 3 -56 11 4 8 -3 9 -26
4 -23 -5 -30 -4 -26 4 4 6 27 11 51 11 44 0 65 12 44 26 -6 3 -15 0 -20 -7 -5
-8 -9 -9 -9 -4 0 9 -46 12 -67 5 -5 -1 -12 -1 -18 0 -17 3 -137 -12 -132 -17
3 -2 36 -8 74 -12 47 -6 -19 -9 -217 -10 -157 -1 -348 -6 -424 -11 -77 -6
-141 -9 -142 -7 -2 2 0 15 4 30 l7 26 325 6 c282 5 656 28 669 41 14 13 22 -1
19 -33z m118 -113 c5 -5 36 -21 69 -34 38 -16 51 -25 37 -26 -21 0 -112 37
-122 50 -3 4 -12 10 -20 13 -11 4 -9 6 6 6 11 1 24 -3 30 -9z m1631 -70 c65
-44 126 -86 137 -94 29 -23 10 -38 -40 -30 -30 4 -44 3 -44 -5 0 -6 -8 -11
-17 -12 -13 0 -11 -3 7 -12 35 -16 35 -15 15 -37 -19 -21 -19 -21 40 -36 l30
-7 -25 -7 c-27 -7 -30 -38 -4 -53 8 -4 14 -14 14 -22 0 -8 12 -21 26 -28 l27
-14 -31 -11 c-16 -6 -50 -8 -74 -5 -35 5 -41 3 -30 -8 20 -21 14 -29 -17 -23
-16 3 -31 1 -35 -4 -8 -13 24 -32 53 -32 14 0 21 -6 21 -20 0 -17 -4 -18 -25
-10 -13 5 -41 20 -62 34 -21 14 -101 52 -178 86 -77 33 -164 72 -193 85 -58
28 -78 31 -84 14 -2 -7 -24 21 -48 62 -24 41 -56 93 -72 116 -15 23 -28 46
-28 50 0 20 187 66 360 88 161 20 147 23 277 -65z m-3137 60 c0 -5 -7 -6 -17
-3 -11 5 -14 3 -8 -6 5 -10 2 -11 -14 -6 -12 4 -21 2 -21 -4 0 -15 -27 -14
-36 1 -5 8 -2 9 9 5 10 -3 17 -2 17 3 0 9 22 17 53 19 9 0 17 -3 17 -9z m2553
-211 c27 -46 27 -59 -1 -59 -8 0 -20 -7 -26 -15 -9 -12 -20 -7 -70 30 -51 39
-66 45 -108 45 -26 0 -48 4 -48 9 0 6 41 30 91 56 l92 45 22 -32 c12 -18 34
-54 48 -79z m-2728 62 c-33 -30 -256 -77 -240 -50 10 15 89 51 93 41 2 -6 19
-5 45 4 49 15 116 18 102 5z m1925 -15 c0 -8 -61 -48 -66 -43 -3 2 10 14 28
26 35 22 38 23 38 17z m-2231 -10 c-2 -2 -15 -9 -29 -15 -24 -11 -24 -11 -6 3
16 13 49 24 35 12z m3854 -252 c7 -8 -36 -44 -52 -44 -6 0 -10 11 -9 25 2 20
8 25 29 25 14 0 29 -3 32 -6z m-3972 -51 c-16 -3 -20 -7 -12 -12 14 -9 3 -43
-13 -38 -6 2 -11 16 -12 30 -1 24 2 27 30 26 26 -2 27 -2 7 -6z m656 -9 c-3
-3 -12 -4 -19 -1 -8 3 -5 6 6 6 11 1 17 -2 13 -5z m663 -19 c275 -17 512 -36
507 -41 -19 -19 -509 -80 -632 -78 -151 1 -245 12 -245 29 0 21 94 28 370 30
333 2 359 3 339 15 -20 12 -185 27 -389 36 -154 6 -284 12 -303 13 -5 1 -6 4
-4 9 6 8 8 8 357 -13z m2540 15 c0 -5 -7 -10 -15 -10 -8 0 -15 5 -15 10 0 6 7
10 15 10 8 0 15 -4 15 -10z m-3780 -10 c0 -5 -3 -10 -7 -10 -5 0 -18 -3 -30
-6 -15 -4 -23 -2 -23 6 0 7 7 10 15 7 8 -4 17 -2 20 3 8 13 25 13 25 0z m4219
-42 c6 -18 7 -28 2 -23 -10 12 -25 55 -18 55 3 0 10 -15 16 -32z m-3262 6 c-3
-3 -12 -4 -19 -1 -8 3 -5 6 6 6 11 1 17 -2 13 -5z m-940 -11 c-20 -2 -52 -2
-70 0 -17 2 0 4 38 4 39 0 53 -2 32 -4z m573 -14 c0 -18 -2 -19 -15 -9 -13 11
-20 10 -41 0 -20 -12 -46 -12 -147 -2 -67 7 -165 13 -217 14 -93 2 -93 2 35 8
72 3 187 7 258 8 123 2 127 1 127 -19z m1187 -6 c-5 -8 21 -8 173 0 137 8 50
-7 -185 -33 -104 -11 -235 -27 -289 -35 -107 -16 -241 -19 -196 -5 14 4 48 8
77 9 28 1 54 5 57 9 3 5 51 15 108 22 57 7 135 18 173 25 39 7 74 13 78 14 5
0 6 -2 4 -6z m353 -3 c0 -12 -37 -12 -65 0 -15 7 -10 9 23 9 23 1 42 -3 42 -9z
m1670 -10 c0 -13 -11 -13 -30 0 -12 8 -11 10 8 10 12 0 22 -4 22 -10z m-1852
-27 c-10 -2 -28 -2 -40 0 -13 2 -5 4 17 4 22 1 32 -1 23 -4z m2110 -50 c-16
-2 -40 -2 -55 0 -16 2 -3 4 27 4 30 0 43 -2 28 -4z m-2147 -70 c13 -16 12 -17
-3 -4 -17 13 -22 21 -14 21 2 0 10 -8 17 -17z m-2921 -28 c0 -9 -13 -12 -42
-10 -52 3 -51 3 -43 14 9 15 85 11 85 -4z m-100 -35 c0 -21 -24 -28 -35 -10
-8 14 3 30 21 30 8 0 14 -9 14 -20z m615 10 c3 -5 -3 -10 -14 -10 -12 0 -21 5
-21 10 0 6 6 10 14 10 8 0 18 -4 21 -10z m2065 -15 c0 -16 -64 -22 -74 -6 -9
14 5 21 41 21 23 0 33 -5 33 -15z m78 3 c-3 -7 -15 -13 -28 -13 -13 0 -25 6
-27 13 -3 8 6 12 27 12 21 0 30 -4 28 -12z m342 2 c0 -5 -2 -10 -4 -10 -3 0
-8 5 -11 10 -3 6 -1 10 4 10 6 0 11 -4 11 -10z m243 -31 c-4 -15 -8 -17 -14
-8 -8 14 -3 29 11 29 4 0 6 -9 3 -21z m-748 -9 c0 -17 -28 -25 -53 -15 -15 6
-15 8 3 21 24 18 50 14 50 -6z m229 4 c21 -20 21 -19 -14 -22 -20 -2 -30 2
-30 11 0 29 21 35 44 11z m-2466 -10 c34 -10 26 -20 -18 -21 -22 -1 -47 -9
-56 -17 -19 -19 -37 -21 -31 -3 2 6 9 12 16 12 6 0 15 5 19 11 6 10 27 21 42
23 3 0 15 -2 28 -5z m-398 -18 c0 -15 -24 -28 -34 -19 -13 14 -5 33 14 33 11
0 20 -6 20 -14z m2278 -18 c-5 -13 -91 -22 -116 -13 -30 11 3 25 59 25 44 0
60 -3 57 -12z m1099 -10 c-3 -8 -6 -5 -6 6 -1 11 2 17 5 13 3 -3 4 -12 1 -19z
m1441 -3 c-3 -3 -9 2 -12 12 -6 14 -5 15 5 6 7 -7 10 -15 7 -18z m-16 -7 c20
-33 9 -39 -54 -32 -58 6 -88 22 -88 46 0 12 133 0 142 -14z m-1904 -11 c2 -12
-3 -17 -17 -17 -12 0 -21 6 -21 13 0 31 32 34 38 4z m-740 1 c-5 -15 -58 -24
-58 -9 0 11 17 19 43 20 11 1 17 -4 15 -11z m146 6 c23 -9 20 -24 -4 -24 -11
0 -20 7 -20 15 0 17 2 18 24 9z m286 -4 c0 -20 -50 -31 -72 -16 -19 13 -19 14
-1 19 34 9 73 7 73 -3z m3845 -113 c8 -20 13 -37 11 -37 -5 0 -86 147 -86 156
0 13 59 -81 75 -119z m-6145 93 c0 -13 -28 -25 -38 -16 -3 4 0 11 8 16 20 13
30 12 30 0z m-309 -15 c0 -5 -9 -11 -21 -13 -20 -3 -27 8 -13 22 10 9 34 3 34
-9z m2650 -12 c-12 -20 -14 -14 -5 12 4 9 9 14 11 11 3 -2 0 -13 -6 -23z
m3829 -24 c12 -23 19 -43 16 -46 -4 -4 -46 69 -46 82 0 15 12 1 30 -36z
m-4241 -13 c-9 -8 -10 -7 -5 7 3 10 7 24 7 30 1 7 3 4 6 -7 3 -10 -1 -23 -8
-30z m2544 22 c21 -6 36 -16 34 -22 -2 -6 21 -23 52 -38 42 -21 70 -28 116
-28 69 0 107 -8 99 -21 -3 -5 -51 -10 -107 -10 -88 -1 -196 -14 -144 -18 34
-2 7 -18 -52 -31 -33 -7 -65 -9 -73 -4 -8 6 7 12 47 20 l60 13 -60 -2 c-33 -1
-64 -6 -68 -12 -4 -5 -5 1 -2 15 3 14 -3 51 -15 84 -11 33 -20 62 -20 66 0 10
85 2 133 -12z m-2643 3 c0 -12 -46 -20 -61 -11 -8 6 -6 9 7 13 32 8 54 7 54
-2z m210 5 c0 -11 -19 -15 -25 -6 -3 5 1 10 9 10 9 0 16 -2 16 -4z m2868 -15
c53 -11 147 -22 207 -26 121 -7 316 -42 327 -58 4 -6 4 -15 1 -20 -3 -4 -107
-5 -232 -2 l-226 7 -65 39 c-72 43 -138 59 -239 59 -36 0 -73 5 -81 10 -28 18
204 11 308 -9z m-4915 -16 c1 -6 -11 -11 -28 -13 -29 -2 -29 -2 -10 13 20 16
35 16 38 0z m2297 5 c12 -7 11 -10 -5 -16 -11 -4 -23 -12 -27 -18 -5 -7 -13
-5 -25 7 -16 15 -16 19 -3 27 19 12 41 12 60 0z m310 -4 c0 -17 -27 -29 -35
-16 -4 6 -3 15 0 20 9 15 35 12 35 -4z m3630 -17 c0 -6 -4 -7 -10 -4 -5 3 -10
11 -10 16 0 6 5 7 10 4 6 -3 10 -11 10 -16z m-6527 5 c9 -10 -4 -34 -18 -34
-17 0 -28 17 -20 30 7 11 28 13 38 4z m2237 -14 c0 -5 -4 -10 -9 -10 -6 0 -13
5 -16 10 -3 6 1 10 9 10 9 0 16 -4 16 -10z m3497 4 c-3 -3 -12 -4 -19 -1 -8 3
-5 6 6 6 11 1 17 -2 13 -5z m-5446 -13 c-11 -7 -10 -10 5 -13 16 -4 14 -7 -10
-17 -16 -6 -31 -9 -34 -6 -7 7 28 45 42 45 6 0 5 -4 -3 -9z m1851 -26 c11 -14
13 -24 6 -32 -12 -15 -58 -17 -58 -3 0 6 11 10 25 10 28 0 32 12 10 30 -8 7
-15 8 -15 3 0 -6 -11 -8 -25 -5 -29 5 -33 19 -7 24 24 6 44 -3 64 -27z m-2098
6 c9 -15 -18 -31 -34 -20 -13 8 -13 10 0 19 19 12 27 12 34 1z m2466 -22 c0
-6 -4 -7 -10 -4 -5 3 -10 11 -10 16 0 6 5 7 10 4 6 -3 10 -11 10 -16z m115 12
c8 -14 -30 -32 -49 -25 -30 11 -16 34 20 34 13 0 25 -4 29 -9z m229 0 c9 -14
-22 -34 -40 -27 -13 5 -14 9 -4 21 14 17 36 20 44 6z m-2499 -21 c4 -6 -7 -10
-24 -10 -17 0 -31 -5 -31 -11 0 -5 -4 -8 -10 -4 -5 3 -7 12 -3 20 6 17 58 20
68 5z m2409 -13 c14 -6 16 -10 7 -20 -7 -9 -31 -13 -71 -11 -65 2 -76 6 -65
23 8 13 52 15 59 2 10 -16 45 0 39 17 -3 11 -2 13 4 6 4 -6 16 -14 27 -17z
m-469 3 c-3 -5 -13 -10 -21 -10 -8 0 -14 5 -14 10 0 6 9 10 21 10 11 0 17 -4
14 -10z m-52 -19 c9 -1 17 -5 17 -10 0 -8 -119 -21 -129 -14 -2 1 1 8 7 15 6
7 28 12 49 11 21 -1 46 -2 56 -2z m-1648 -11 c-3 -5 -15 -10 -26 -10 -10 0
-19 5 -19 10 0 6 12 10 26 10 14 0 23 -4 19 -10z m5635 -85 c12 -13 26 -22 30
-20 4 3 15 -4 25 -15 10 -11 25 -20 32 -20 8 0 13 -6 10 -12 -2 -7 -11 -11
-18 -9 -8 2 -33 5 -56 5 -23 1 -48 7 -55 14 -6 6 -26 12 -44 12 -28 0 -31 3
-27 23 3 12 10 28 16 35 16 20 62 14 87 -13z m80 0 c7 -9 8 -15 2 -15 -5 0
-12 7 -16 15 -3 8 -4 15 -2 15 2 0 9 -7 16 -15z m220 -38 c0 -2 -15 -13 -32
-26 l-33 -22 28 25 c26 24 37 31 37 23z m-355 -29 c25 -11 30 -34 7 -32 -7 1
-23 2 -37 3 -18 1 -25 7 -25 21 0 23 17 25 55 8z m-1506 -64 c13 -29 14 -44 3
-44 -7 0 -42 63 -42 75 0 13 29 -10 39 -31z m-17 -86 c4 -10 3 -18 -2 -18 -6
0 -10 7 -10 15 0 7 -6 18 -13 22 -7 4 -18 22 -25 38 l-13 30 28 -34 c15 -19
31 -43 35 -53z m-482 -37 c-19 -4 -45 -13 -57 -19 -27 -15 -84 -85 -111 -137
-12 -22 -21 -36 -22 -32 0 13 36 79 68 123 33 46 83 74 127 73 29 -1 29 -1 -5
-8z m-3207 -86 c-3 -9 -8 -14 -10 -11 -3 3 -2 9 2 15 9 16 15 13 8 -4z m32
-16 c-10 -15 -25 -10 -19 6 4 8 10 12 15 9 5 -3 7 -10 4 -15z m4235 -375
c-118 -24 -235 -50 -260 -58 l-45 -14 68 1 c37 0 70 -3 74 -7 3 -3 -39 -7 -95
-8 -56 -1 -109 -2 -117 -2 -32 -2 -14 19 27 31 122 36 466 101 538 101 14 0
-72 -20 -190 -44z m-32 -71 c-10 -2 -26 -2 -35 0 -10 3 -2 5 17 5 19 0 27 -2
18 -5z m-378 -23 c0 -5 -5 -10 -11 -10 -5 0 -7 5 -4 10 3 6 8 10 11 10 2 0 4
-4 4 -10z m1163 -97 c-7 -2 -21 -2 -30 0 -10 3 -4 5 12 5 17 0 24 -2 18 -5z
m733 -67 c-25 -43 -69 -86 -88 -86 -5 0 13 22 40 48 27 27 53 58 57 71 4 12 9
20 12 17 3 -3 -6 -25 -21 -50z m-958 27 c-10 -2 -26 -2 -35 0 -10 3 -2 5 17 5
19 0 27 -2 18 -5z m-558 -193 c5 0 10 -7 10 -15 0 -15 -35 -21 -43 -7 -3 4 -3
20 0 37 6 27 7 28 14 7 5 -12 13 -22 19 -22z m-430 -18 c0 -10 -49 -46 -75
-55 -14 -5 -11 1 10 18 17 14 36 25 43 25 7 0 10 5 7 10 -3 6 -1 10 4 10 6 0
11 -4 11 -8z m-436 -179 c-20 -31 -37 -47 -74 -67 -39 -21 -70 -29 -70 -17 0
6 12 14 28 17 30 7 90 48 110 76 21 29 26 21 6 -9z"/>
<path d="M3585 2960 c-3 -5 1 -10 9 -10 9 0 16 5 16 10 0 6 -4 10 -9 10 -6 0
-13 -4 -16 -10z"/>
<path d="M3213 2943 c9 -2 25 -2 35 0 9 3 1 5 -18 5 -19 0 -27 -2 -17 -5z"/>
<path d="M3138 2223 c6 -2 18 -2 25 0 6 3 1 5 -13 5 -14 0 -19 -2 -12 -5z"/>
<path d="M5298 1943 c6 -2 18 -2 25 0 6 3 1 5 -13 5 -14 0 -19 -2 -12 -5z"/>
<path d="M6695 1640 c-4 -6 9 -10 31 -10 42 0 42 4 2 14 -15 3 -30 2 -33 -4z"/>
<path d="M4295 2530 c-3 -5 -1 -10 4 -10 6 0 11 5 11 10 0 6 -2 10 -4 10 -3 0
-8 -4 -11 -10z"/>
<path d="M4271 2464 c0 -11 3 -14 6 -6 3 7 2 16 -1 19 -3 4 -6 -2 -5 -13z"/>
<path d="M4411 2374 c0 -11 3 -14 6 -6 3 7 2 16 -1 19 -3 4 -6 -2 -5 -13z"/>
<path d="M4240 2299 c0 -5 17 -9 39 -9 21 0 54 -3 72 -6 23 -5 31 -3 24 3 -13
13 -135 24 -135 12z"/>
<path d="M4188 2253 c17 -2 47 -2 65 0 17 2 3 4 -33 4 -36 0 -50 -2 -32 -4z"/>
<path d="M4308 2243 c12 -2 30 -2 40 0 9 3 -1 5 -23 4 -22 0 -30 -2 -17 -4z"/>
<path d="M4455 2231 c14 -7 16 -10 5 -11 -10 -1 -8 -4 6 -10 11 -4 55 -7 97
-6 41 1 74 -1 72 -4 -4 -7 122 -6 129 1 7 6 -141 26 -254 34 -50 3 -68 2 -55
-4z"/>
<path d="M5258 2213 c7 -3 16 -2 19 1 4 3 -2 6 -13 5 -11 0 -14 -3 -6 -6z"/>
<path d="M4786 2203 c-14 -15 -4 -21 39 -21 25 -1 45 3 45 8 0 6 -8 10 -17 11
-10 0 -27 2 -39 4 -12 3 -24 2 -28 -2z"/>
<path d="M4430 2190 c14 -4 32 -8 40 -9 13 -1 13 0 0 9 -8 5 -26 9 -40 9 l-25
-1 25 -8z"/>
<path d="M6520 2111 c0 -5 5 -13 10 -16 6 -3 10 -2 10 4 0 5 -4 13 -10 16 -5
3 -10 2 -10 -4z"/>
<path d="M4960 1810 c0 -6 -11 -10 -24 -10 -26 0 -37 -17 -35 -58 1 -30 89
-118 89 -89 0 8 6 17 13 20 9 3 9 7 -1 20 -12 14 -11 20 1 37 13 19 13 25 -1
51 -17 29 -42 46 -42 29z"/>
<path d="M4600 1775 c7 -9 15 -13 17 -11 7 7 -7 26 -19 26 -6 0 -6 -6 2 -15z"/>
</g>
</svg>
