<?xml version="1.0" standalone="no"?>
<!DOCTYPE svg PUBLIC "-//W3C//DTD SVG 20010904//EN"
 "http://www.w3.org/TR/2001/REC-SVG-20010904/DTD/svg10.dtd">
<svg version="1.0" xmlns="http://www.w3.org/2000/svg"
 width="666.000000pt" height="374.000000pt" viewBox="0 0 666.000000 374.000000"
 preserveAspectRatio="xMidYMid meet">

<g transform="translate(0.000000,374.000000) scale(0.100000,-0.100000)"
fill="#000000" stroke="none">
<path d="M1040 2011 l-95 -6 0 -92 c0 -79 3 -95 20 -112 23 -22 125 -61 160
-61 29 0 35 9 55 85 15 57 17 60 45 58 310 -18 383 -23 400 -23 19 0 22 -12
38 -162 10 -90 20 -175 23 -189 4 -19 -1 -28 -18 -38 -13 -6 -15 -9 -6 -7 10
3 20 1 22 -3 5 -8 -248 -41 -313 -41 -132 0 -210 -94 -280 -340 -47 -166 -54
-222 -47 -403 10 -240 14 -258 56 -279 19 -10 47 -18 62 -18 21 0 33 -9 52
-38 29 -47 82 -94 124 -111 18 -7 32 -19 32 -26 0 -45 157 -120 310 -149 271
-52 842 -65 1190 -27 180 19 235 21 446 15 263 -7 278 -6 514 51 74 18 189 42
255 54 456 80 671 115 815 132 91 11 186 26 212 35 55 18 119 82 137 137 14
41 35 57 78 57 15 0 35 5 43 10 11 7 5 10 -25 10 -67 1 -67 1 -51 141 27 226
29 299 12 364 -19 73 -39 101 -102 142 -27 18 -62 42 -79 55 -16 13 -37 24
-47 24 -10 1 -19 2 -20 4 -2 1 -10 3 -18 5 -8 1 -27 6 -42 10 l-28 7 42 -71
c22 -39 39 -73 36 -76 -2 -2 -21 25 -42 61 -50 87 -59 74 -11 -17 21 -40 32
-69 26 -65 -6 4 -18 22 -27 39 -22 42 -60 87 -68 80 -3 -4 5 -20 18 -37 25
-34 59 -96 52 -96 -2 0 -22 23 -43 52 -28 39 -39 48 -41 34 -2 -10 5 -28 16
-39 11 -12 25 -32 31 -44 11 -21 10 -21 -16 -8 -18 10 -32 11 -45 4 -22 -12
-22 -7 -4 79 8 35 19 69 25 75 18 18 13 24 -31 35 -103 27 -151 33 -169 21
-11 -6 -9 -13 9 -32 12 -13 22 -34 22 -47 0 -12 8 -29 18 -36 15 -12 14 -13
-15 -14 -26 0 -33 4 -33 19 0 38 -11 51 -45 51 -27 0 -41 9 -75 48 -23 26 -39
41 -35 35 8 -16 5 -16 -33 0 -35 15 -30 32 11 34 41 2 57 20 57 67 -1 35 -6
45 -37 69 -21 15 -47 30 -60 33 -26 7 -77 -21 -68 -36 4 -6 2 -10 -4 -10 -5 0
-14 6 -18 14 -15 27 -246 214 -314 254 -66 40 -70 41 -126 33 l-58 -9 61 -1
c56 -1 68 -6 138 -51 42 -28 74 -55 71 -60 -4 -6 -11 -8 -16 -4 -6 3 -22 3
-37 -1 -23 -6 -24 -8 -10 -16 10 -5 15 -16 12 -24 -4 -10 0 -15 11 -15 13 0
15 -3 7 -13 -8 -10 -5 -20 13 -40 27 -29 20 -40 -23 -35 -17 2 -26 -2 -24 -10
1 -6 -8 -12 -20 -13 -21 -1 -21 -2 5 -12 15 -6 27 -14 27 -19 0 -13 -8 -10
-73 26 -79 44 -235 108 -246 102 -9 -6 -85 116 -82 131 1 4 16 13 34 20 17 6
27 12 20 12 -6 1 -24 -4 -39 -9 -20 -8 -29 -7 -38 4 -15 19 -86 66 -100 66 -6
0 5 -10 24 -21 19 -12 45 -30 58 -42 l22 -21 -27 -11 c-16 -7 -54 -29 -85 -49
-48 -30 -58 -42 -58 -64 l0 -27 13 25 c12 22 18 25 63 22 31 -2 60 -11 79 -25
16 -12 45 -21 64 -22 33 0 36 -4 76 -82 l41 -82 -45 -4 -46 -3 53 -2 c32 -1
52 -6 52 -14 0 -6 2 -9 5 -7 2 3 -13 41 -35 84 -37 73 -47 105 -35 105 9 0
271 -132 290 -146 16 -12 17 -17 7 -23 -22 -13 32 -22 107 -18 36 2 49 2 29 0
-27 -3 -38 -9 -39 -21 -3 -41 -5 -49 -25 -74 l-20 -26 -137 16 c-106 11 -144
12 -163 3 -28 -12 -24 -31 7 -31 16 0 18 -3 9 -19 -13 -25 2 -35 37 -26 24 6
25 5 12 -12 -8 -10 -20 -23 -28 -29 -11 -9 -11 -15 4 -38 10 -15 19 -44 20
-64 2 -34 0 -37 -25 -36 -30 1 -50 11 -50 25 0 6 5 7 10 4 11 -7 11 -6 13 44
2 37 -19 58 -48 47 -13 -4 -16 -14 -13 -36 4 -24 2 -28 -10 -18 -10 9 -15 9
-22 -1 -10 -17 -33 -4 -26 14 2 7 -2 16 -10 19 -42 16 -129 -5 -120 -29 2 -6
-5 -17 -15 -23 -13 -8 -19 -9 -19 -1 0 5 -6 7 -12 4 -7 -4 -4 1 6 9 11 9 21
28 22 44 1 22 -3 27 -23 28 -14 1 -31 12 -40 23 -8 12 -29 28 -46 37 -61 29
-87 45 -87 55 0 6 -4 7 -10 4 -5 -3 -10 -1 -10 4 0 6 -7 11 -15 11 -8 0 -15 5
-15 12 0 6 -3 9 -6 5 -4 -3 -21 0 -39 7 -22 10 -37 11 -50 4 -13 -8 -16 -7
-11 1 4 6 2 11 -5 11 -6 0 -9 -8 -6 -20 3 -11 0 -23 -5 -27 -7 -3 -8 -1 -4 5
4 7 0 12 -11 13 -10 0 -13 3 -5 6 27 11 11 31 -30 38 -24 4 -49 12 -56 18 -10
8 -16 7 -23 -4 -7 -11 -9 -11 -9 -1 0 7 -8 12 -17 11 -28 -3 -74 12 -67 22 3
6 15 7 27 4 17 -5 19 -4 7 4 -12 9 -11 11 8 11 12 0 22 -4 22 -9 0 -5 56 -9
125 -9 115 0 149 7 109 22 -9 3 -52 7 -97 8 -45 0 -66 3 -47 5 80 7 122 15
116 20 -3 3 6 19 19 35 14 16 25 38 25 49 0 10 5 19 10 19 6 0 10 5 10 12 0 6
10 23 23 36 20 24 21 25 2 18 -16 -6 -17 -5 -8 5 15 15 43 21 43 9 0 -4 -9
-36 -20 -70 -29 -91 -24 -97 10 -11 16 41 27 77 25 81 -6 9 31 42 75 69 40 24
24 29 -21 5 -17 -8 -38 -13 -47 -11 -13 3 -11 6 10 17 17 8 24 18 21 27 -5 12
-1 14 18 9 13 -3 18 -3 11 0 -10 5 -9 9 5 20 15 11 10 11 -29 -1 -26 -7 -56
-19 -67 -24 -26 -14 -31 -14 -31 2 0 7 28 23 61 37 34 13 57 26 51 28 -6 2
-31 -5 -55 -16 -38 -17 -44 -17 -43 -5 0 9 -9 17 -22 19 -17 3 -21 0 -16 -8 6
-10 4 -10 -8 0 -9 7 -20 12 -24 11 -29 -5 -34 4 -34 60 0 35 -5 63 -13 69 -7
6 -58 20 -112 31 -83 17 -163 23 -465 31 -376 10 -1492 10 -1660 1z m2023
-155 c4 -11 -12 -14 -75 -15 -45 -1 -89 -6 -99 -11 -10 -6 -60 -10 -111 -11
-51 0 -144 -4 -206 -7 -103 -6 -112 -6 -112 11 0 15 16 17 183 18 142 1 354
15 408 28 4 0 9 -5 12 -13z m-3 -39 c0 -7 -4 -6 -10 3 -6 10 -10 11 -10 3 0
-15 -36 -18 -45 -4 -3 5 7 11 22 13 33 4 43 1 43 -15z m-85 3 c8 -13 -5 -13
-25 0 -13 8 -13 10 2 10 9 0 20 -4 23 -10z m-750 -50 c-11 -5 -27 -9 -35 -9
-9 0 -8 4 5 9 11 5 27 9 35 9 9 0 8 -4 -5 -9z m960 -10 c13 -6 15 -9 5 -9 -8
0 -22 4 -30 9 -18 12 -2 12 25 0z m559 -92 c25 -41 25 -42 5 -56 -18 -12 -24
-11 -54 12 -18 14 -45 26 -59 26 -14 0 -26 4 -26 8 0 9 79 52 97 52 6 0 23
-19 37 -42z m-1604 22 c0 -12 -104 -43 -128 -38 -27 6 21 29 72 35 22 2 43 6
45 9 7 7 11 5 11 -6z m2088 -172 c-2 -6 -10 -14 -16 -16 -7 -2 -10 2 -6 12 7
18 28 22 22 4z m-2338 -38 c-6 -11 -13 -20 -15 -20 -3 0 -5 9 -5 20 0 11 7 20
15 20 13 0 14 -4 5 -20z m593 3 c-7 -2 -19 -2 -25 0 -7 3 -2 5 12 5 14 0 19
-2 13 -5z m200 -10 c-23 -2 -64 -2 -90 0 -26 2 -7 3 42 3 50 0 71 -1 48 -3z
m217 -12 c51 -7 53 -14 5 -24 -11 -2 34 -3 100 -1 136 3 99 -6 -105 -26 -210
-20 -212 -20 -151 -9 30 5 56 11 58 12 1 2 -79 1 -177 -1 -117 -3 -180 -1
-180 6 0 18 42 22 239 22 195 0 232 6 124 20 -55 7 -55 7 -13 8 25 0 70 -3
100 -7z m-952 -8 c-10 -2 -28 -2 -40 0 -13 2 -5 4 17 4 22 1 32 -1 23 -4z
m332 -1 c0 -14 -57 -18 -160 -12 l-65 3 55 7 c83 10 170 11 170 2z m735 -67
l30 -14 -47 1 c-29 1 -45 5 -41 11 3 6 2 7 -4 4 -5 -3 -23 -2 -39 3 -26 7 -23
8 21 9 28 0 64 -6 80 -14z m46 -42 c13 -16 12 -17 -3 -4 -17 13 -22 21 -14 21
2 0 10 -8 17 -17z m-1721 -12 c0 -5 -11 -8 -25 -8 -14 0 -25 3 -25 8 0 5 11 9
25 9 14 0 25 -4 25 -9z m-60 -21 c0 -5 -4 -10 -10 -10 -5 0 -10 5 -10 10 0 6
5 10 10 10 6 0 10 -4 10 -10z m367 4 c-3 -3 -12 -4 -19 -1 -8 3 -5 6 6 6 11 1
17 -2 13 -5z m1213 -4 c0 -5 -10 -10 -22 -10 -19 0 -20 2 -8 10 19 13 30 13
30 0z m45 0 c3 -5 -3 -10 -15 -10 -12 0 -18 5 -15 10 3 6 10 10 15 10 5 0 12
-4 15 -10z m55 -31 c0 -11 -27 -12 -34 0 -3 4 -3 11 0 14 8 8 34 -3 34 -14z
m-145 1 c-3 -5 -13 -10 -21 -10 -8 0 -14 5 -14 10 0 6 9 10 21 10 11 0 17 -4
14 -10z m-1555 -10 c0 -5 -7 -10 -16 -10 -8 0 -12 5 -9 10 3 6 10 10 16 10 5
0 9 -4 9 -10z m238 3 c-10 -2 -26 -2 -35 0 -10 3 -2 5 17 5 19 0 27 -2 18 -5z
m1119 -25 c10 -11 12 -18 5 -18 -7 0 -12 5 -12 10 0 14 -77 13 -82 -1 -2 -7
-11 -10 -18 -7 -21 7 38 37 68 35 13 -1 30 -9 39 -19z m1472 3 c23 -15 4 -27
-33 -23 -46 5 -58 32 -13 32 18 0 38 -4 46 -9z m-1299 -11 c0 -5 -12 -10 -27
-10 -22 0 -25 2 -13 10 20 13 40 13 40 0z m180 0 c0 -5 -4 -10 -10 -10 -5 0
-10 5 -10 10 0 6 5 10 10 10 6 0 10 -4 10 -10z m-1540 -10 c0 -5 -8 -10 -17
-10 -15 0 -16 2 -3 10 19 12 20 12 20 0z m-180 -4 c0 -3 -4 -8 -10 -11 -5 -3
-10 -1 -10 4 0 6 5 11 10 11 6 0 10 -2 10 -4z m3810 -49 c0 -12 0 -11 -24 28
l-17 30 20 -24 c12 -13 21 -28 21 -34z m-2550 32 c0 -5 -9 -9 -20 -9 -11 0
-20 4 -20 8 0 4 9 8 20 9 11 1 20 -2 20 -8z m1571 -11 c12 -19 63 -38 103 -38
22 0 48 -5 56 -10 11 -7 -3 -10 -45 -10 -67 0 -107 -8 -100 -20 3 -4 -6 -10
-20 -12 -14 -3 -25 -1 -25 3 0 5 -6 9 -13 9 -7 0 -20 22 -28 49 l-15 50 40 -6
c23 -3 44 -10 47 -15z m-1305 -10 c-20 -11 -44 1 -25 12 6 5 19 6 27 3 12 -5
12 -7 -2 -15z m185 -1 c-13 -13 -26 -3 -16 12 3 6 11 8 17 5 6 -4 6 -10 -1
-17z m1479 4 c126 -13 189 -26 203 -41 9 -9 -19 -11 -128 -8 -129 3 -143 5
-180 28 -23 14 -64 28 -95 32 -43 5 -37 5 25 3 44 -2 123 -8 175 -14z m-3013
3 c-3 -3 -12 -4 -19 -1 -8 3 -5 6 6 6 11 1 17 -2 13 -5z m-172 -14 c-3 -5 -10
-10 -16 -10 -5 0 -9 5 -9 10 0 6 7 10 16 10 8 0 12 -4 9 -10z m3451 -5 c19
-14 19 -14 -3 -15 -12 0 -23 -6 -26 -12 -2 -7 -6 -1 -9 15 -6 31 7 35 38 12z
m-3271 -16 c-4 -5 2 -9 12 -10 16 0 16 -1 -2 -8 -24 -10 -47 9 -33 26 11 14
32 7 23 -8z m1065 11 c0 -5 -7 -10 -15 -10 -8 0 -15 5 -15 10 0 6 7 10 15 10
8 0 15 -4 15 -10z m-1220 -10 c0 -5 -7 -10 -16 -10 -8 0 -12 5 -9 10 3 6 10
10 16 10 5 0 9 -4 9 -10z m1236 -22 c-9 -5 -22 -7 -29 -4 -7 2 -4 5 6 5 9 1
17 6 17 12 0 5 5 7 11 3 8 -5 6 -10 -5 -16z m284 12 c0 -5 -7 -10 -15 -10 -8
0 -15 5 -15 10 0 6 7 10 15 10 8 0 15 -4 15 -10z m135 0 c-3 -5 -10 -10 -16
-10 -5 0 -9 5 -9 10 0 6 7 10 16 10 8 0 12 -4 9 -10z m-325 -8 c0 -5 -10 -13
-22 -19 -30 -14 -81 -16 -73 -3 3 6 22 10 41 10 19 0 34 5 34 10 0 6 5 10 10
10 6 0 10 -4 10 -8z m280 -13 c0 -5 -13 -9 -30 -9 -16 0 -33 0 -37 -1 -4 0 -9
5 -11 11 -3 9 5 10 28 5 23 -5 30 -4 26 4 -5 7 -1 9 8 5 9 -3 16 -10 16 -15z
m1843 4 c-7 -2 -19 -2 -25 0 -7 3 -2 5 12 5 14 0 19 -2 13 -5z m-3133 -13 c0
-5 -4 -10 -10 -10 -5 0 -10 5 -10 10 0 6 5 10 10 10 6 0 10 -4 10 -10z m2400
-26 c18 -48 12 -62 -14 -30 -14 16 -22 35 -19 43 8 21 23 15 33 -13z m930 -24
c0 -4 14 -13 30 -20 32 -13 41 -30 13 -25 -63 13 -87 14 -73 6 18 -12 8 -24
-14 -15 -20 8 -21 38 -1 58 15 15 45 12 45 -4z m-1006 -65 c4 -13 2 -14 -14
-5 -23 13 -26 20 -6 20 8 0 16 -7 20 -15z m89 -15 c3 -11 3 -20 1 -20 -2 0 -8
9 -14 20 -6 11 -7 20 -2 20 6 0 12 -9 15 -20z m-13 -36 c0 -8 -4 -12 -10 -9
-5 3 -10 10 -10 16 0 5 5 9 10 9 6 0 10 -7 10 -16z m-310 -39 c0 -2 -10 -9
-22 -15 -22 -11 -22 -10 -4 4 21 17 26 19 26 11z m590 -287 c-52 -11 -96 -24
-98 -29 -2 -5 -20 -9 -40 -9 -19 0 -33 2 -30 5 11 11 194 53 228 53 21 0 -4
-8 -60 -20z m47 -254 c-9 -9 -28 6 -21 18 4 6 10 6 17 -1 6 -6 8 -13 4 -17z
m-257 1 c0 -2 -10 -10 -22 -16 -21 -11 -22 -11 -9 4 13 16 31 23 31 12z m-275
-124 c-11 -11 -33 -23 -50 -26 -25 -6 -23 -3 15 18 57 31 59 31 35 8z"/>
<path d="M2833 1423 c9 -2 25 -2 35 0 9 3 1 5 -18 5 -19 0 -27 -2 -17 -5z"/>
<path d="M4888 1053 c7 -3 16 -2 19 1 4 3 -2 6 -13 5 -11 0 -14 -3 -6 -6z"/>
<path d="M3518 1823 c7 -3 16 -2 19 1 4 3 -2 6 -13 5 -11 0 -14 -3 -6 -6z"/>
<path d="M3858 1773 c12 -2 30 -2 40 0 9 3 -1 5 -23 4 -22 0 -30 -2 -17 -4z"/>
<path d="M3808 1763 c7 -3 16 -2 19 1 4 3 -2 6 -13 5 -11 0 -14 -3 -6 -6z"/>
<path d="M3488 1443 c6 -2 18 -2 25 0 6 3 1 5 -13 5 -14 0 -19 -2 -12 -5z"/>
<path d="M3573 1433 c9 -2 23 -2 30 0 6 3 -1 5 -18 5 -16 0 -22 -2 -12 -5z"/>
<path d="M3663 1423 c20 -2 54 -2 75 0 20 2 3 4 -38 4 -41 0 -58 -2 -37 -4z"/>
<path d="M3378 1403 c12 -2 32 -2 45 0 12 2 2 4 -23 4 -25 0 -35 -2 -22 -4z"/>
<path d="M3610 1399 c25 -4 65 -7 90 -7 l45 1 -55 7 c-30 5 -71 8 -90 8 -32 0
-31 -1 10 -9z"/>
<path d="M3765 1390 c3 -5 15 -10 26 -10 11 0 17 5 14 10 -3 6 -15 10 -26 10
-11 0 -17 -4 -14 -10z"/>
</g>
</svg>
